<svg xmlns="http://www.w3.org/2000/svg" width="32" height="32" viewBox="0 0 32 32" shape-rendering="crispEdges" role="img" aria-label="Puck, the site mascot (idle)"><rect x="6" y="0" width="1" height="1" fill="#232838"/><rect x="25" y="0" width="1" height="1" fill="#232838"/><rect x="5" y="1" width="3" height="1" fill="#232838"/><rect x="24" y="1" width="3" height="1" fill="#232838"/><rect x="4" y="2" width="2" height="1" fill="#232838"/><rect x="6" y="2" width="1" height="1" fill="#f6a8bd"/><rect x="7" y="2" width="2" height="1" fill="#232838"/><rect x="23" y="2" width="2" height="1" fill="#232838"/><rect x="25" y="2" width="1" height="1" fill="#f6a8bd"/><rect x="26" y="2" width="2" height="1" fill="#232838"/><rect x="4" y="3" width="2" height="1" fill="#232838"/><rect x="6" y="3" width="2" height="1" fill="#f6a8bd"/><rect x="8" y="3" width="2" height="1" fill="#232838"/><rect x="22" y="3" width="2" height="1" fill="#232838"/><rect x="24" y="3" width="2" height="1" fill="#f6a8bd"/><rect x="26" y="3" width="2" height="1" fill="#232838"/><rect x="3" y="4" width="2" height="1" fill="#232838"/><rect x="5" y="4" width="1" height="1" fill="#f7f9fd"/><rect x="6" y="4" width="2" height="1" fill="#f6a8bd"/><rect x="8" y="4" width="2" height="1" fill="#232838"/><rect x="22" y="4" width="2" height="1" fill="#232838"/><rect x="24" y="4" width="2" height="1" fill="#f6a8bd"/><rect x="26" y="4" width="1" height="1" fill="#f7f9fd"/><rect x="27" y="4" width="2" height="1" fill="#232838"/><rect x="3" y="5" width="2" height="1" fill="#232838"/><rect x="5" y="5" width="1" height="1" fill="#f7f9fd"/><rect x="6" y="5" width="1" height="1" fill="#dbe2ee"/><rect x="7" y="5" width="2" height="1" fill="#f6a8bd"/><rect x="9" y="5" width="2" height="1" fill="#232838"/><rect x="21" y="5" width="2" height="1" fill="#232838"/><rect x="23" y="5" width="2" height="1" fill="#f6a8bd"/><rect x="25" y="5" width="1" height="1" fill="#dbe2ee"/><rect x="26" y="5" width="1" height="1" fill="#f7f9fd"/><rect x="27" y="5" width="2" height="1" fill="#232838"/><rect x="2" y="6" width="2" height="1" fill="#232838"/><rect x="4" y="6" width="1" height="1" fill="#f7f9fd"/><rect x="5" y="6" width="2" height="1" fill="#dbe2ee"/><rect x="7" y="6" width="2" height="1" fill="#f6a8bd"/><rect x="9" y="6" width="2" height="1" fill="#232838"/><rect x="12" y="6" width="8" height="1" fill="#232838"/><rect x="21" y="6" width="2" height="1" fill="#232838"/><rect x="23" y="6" width="2" height="1" fill="#f6a8bd"/><rect x="25" y="6" width="2" height="1" fill="#dbe2ee"/><rect x="27" y="6" width="1" height="1" fill="#f7f9fd"/><rect x="28" y="6" width="2" height="1" fill="#232838"/><rect x="2" y="7" width="2" height="1" fill="#232838"/><rect x="4" y="7" width="1" height="1" fill="#f7f9fd"/><rect x="5" y="7" width="3" height="1" fill="#dbe2ee"/><rect x="8" y="7" width="1" height="1" fill="#f6a8bd"/><rect x="9" y="7" width="14" height="1" fill="#232838"/><rect x="23" y="7" width="1" height="1" fill="#f6a8bd"/><rect x="24" y="7" width="3" height="1" fill="#dbe2ee"/><rect x="27" y="7" width="1" height="1" fill="#f7f9fd"/><rect x="28" y="7" width="2" height="1" fill="#232838"/><rect x="1" y="8" width="2" height="1" fill="#232838"/><rect x="3" y="8" width="1" height="1" fill="#f7f9fd"/><rect x="4" y="8" width="5" height="1" fill="#dbe2ee"/><rect x="9" y="8" width="2" height="1" fill="#232838"/><rect x="11" y="8" width="10" height="1" fill="#f7f9fd"/><rect x="21" y="8" width="2" height="1" fill="#232838"/><rect x="23" y="8" width="2" height="1" fill="#dbe2ee"/><rect x="25" y="8" width="2" height="1" fill="#ffd166"/><rect x="27" y="8" width="1" height="1" fill="#dbe2ee"/><rect x="28" y="8" width="1" height="1" fill="#f7f9fd"/><rect x="29" y="8" width="2" height="1" fill="#232838"/><rect x="1" y="9" width="2" height="1" fill="#232838"/><rect x="3" y="9" width="1" height="1" fill="#f7f9fd"/><rect x="4" y="9" width="4" height="1" fill="#dbe2ee"/><rect x="8" y="9" width="16" height="1" fill="#f7f9fd"/><rect x="24" y="9" width="2" height="1" fill="#dbe2ee"/><rect x="26" y="9" width="1" height="1" fill="#ffd166"/><rect x="27" y="9" width="1" height="1" fill="#dbe2ee"/><rect x="28" y="9" width="1" height="1" fill="#f7f9fd"/><rect x="29" y="9" width="2" height="1" fill="#232838"/><rect x="0" y="10" width="2" height="1" fill="#232838"/><rect x="2" y="10" width="1" height="1" fill="#f7f9fd"/><rect x="3" y="10" width="3" height="1" fill="#dbe2ee"/><rect x="6" y="10" width="19" height="1" fill="#f7f9fd"/><rect x="25" y="10" width="1" height="1" fill="#ffd166"/><rect x="26" y="10" width="1" height="1" fill="#d2a034"/><rect x="27" y="10" width="2" height="1" fill="#dbe2ee"/><rect x="29" y="10" width="1" height="1" fill="#f7f9fd"/><rect x="30" y="10" width="2" height="1" fill="#232838"/><rect x="0" y="11" width="2" height="1" fill="#232838"/><rect x="2" y="11" width="1" height="1" fill="#f7f9fd"/><rect x="3" y="11" width="2" height="1" fill="#dbe2ee"/><rect x="5" y="11" width="22" height="1" fill="#f7f9fd"/><rect x="27" y="11" width="2" height="1" fill="#dbe2ee"/><rect x="29" y="11" width="1" height="1" fill="#f7f9fd"/><rect x="30" y="11" width="2" height="1" fill="#232838"/><rect x="0" y="12" width="2" height="1" fill="#232838"/><rect x="2" y="12" width="1" height="1" fill="#f7f9fd"/><rect x="3" y="12" width="1" height="1" fill="#dbe2ee"/><rect x="4" y="12" width="24" height="1" fill="#f7f9fd"/><rect x="28" y="12" width="1" height="1" fill="#dbe2ee"/><rect x="29" y="12" width="1" height="1" fill="#f7f9fd"/><rect x="30" y="12" width="2" height="1" fill="#232838"/><rect x="0" y="13" width="2" height="1" fill="#232838"/><rect x="2" y="13" width="1" height="1" fill="#dbe2ee"/><rect x="3" y="13" width="2" height="1" fill="#f7f9fd"/><rect x="5" y="13" width="5" height="1" fill="#232838"/><rect x="10" y="13" width="12" height="1" fill="#f7f9fd"/><rect x="22" y="13" width="5" height="1" fill="#232838"/><rect x="27" y="13" width="2" height="1" fill="#f7f9fd"/><rect x="29" y="13" width="1" height="1" fill="#dbe2ee"/><rect x="30" y="13" width="2" height="1" fill="#232838"/><rect x="0" y="14" width="2" height="1" fill="#232838"/><rect x="2" y="14" width="1" height="1" fill="#dbe2ee"/><rect x="3" y="14" width="1" height="1" fill="#f7f9fd"/><rect x="4" y="14" width="1" height="1" fill="#232838"/><rect x="5" y="14" width="5" height="1" fill="#5fe0d6"/><rect x="10" y="14" width="1" height="1" fill="#232838"/><rect x="11" y="14" width="10" height="1" fill="#f7f9fd"/><rect x="21" y="14" width="1" height="1" fill="#232838"/><rect x="22" y="14" width="5" height="1" fill="#5fe0d6"/><rect x="27" y="14" width="1" height="1" fill="#232838"/><rect x="28" y="14" width="1" height="1" fill="#f7f9fd"/><rect x="29" y="14" width="1" height="1" fill="#dbe2ee"/><rect x="30" y="14" width="2" height="1" fill="#232838"/><rect x="0" y="15" width="2" height="1" fill="#232838"/><rect x="2" y="15" width="1" height="1" fill="#dbe2ee"/><rect x="3" y="15" width="1" height="1" fill="#f7f9fd"/><rect x="4" y="15" width="1" height="1" fill="#232838"/><rect x="5" y="15" width="1" height="1" fill="#5fe0d6"/><rect x="6" y="15" width="1" height="1" fill="#ffffff"/><rect x="7" y="15" width="3" height="1" fill="#5fe0d6"/><rect x="10" y="15" width="1" height="1" fill="#232838"/><rect x="11" y="15" width="10" height="1" fill="#f7f9fd"/><rect x="21" y="15" width="1" height="1" fill="#232838"/><rect x="22" y="15" width="3" height="1" fill="#5fe0d6"/><rect x="25" y="15" width="1" height="1" fill="#ffffff"/><rect x="26" y="15" width="1" height="1" fill="#5fe0d6"/><rect x="27" y="15" width="1" height="1" fill="#232838"/><rect x="28" y="15" width="1" height="1" fill="#f7f9fd"/><rect x="29" y="15" width="1" height="1" fill="#dbe2ee"/><rect x="30" y="15" width="2" height="1" fill="#232838"/><rect x="0" y="16" width="2" height="1" fill="#232838"/><rect x="2" y="16" width="1" height="1" fill="#dbe2ee"/><rect x="3" y="16" width="1" height="1" fill="#f7f9fd"/><rect x="4" y="16" width="1" height="1" fill="#232838"/><rect x="5" y="16" width="5" height="1" fill="#5fe0d6"/><rect x="10" y="16" width="1" height="1" fill="#232838"/><rect x="11" y="16" width="10" height="1" fill="#f7f9fd"/><rect x="21" y="16" width="1" height="1" fill="#232838"/><rect x="22" y="16" width="5" height="1" fill="#5fe0d6"/><rect x="27" y="16" width="1" height="1" fill="#232838"/><rect x="28" y="16" width="1" height="1" fill="#f7f9fd"/><rect x="29" y="16" width="1" height="1" fill="#dbe2ee"/><rect x="30" y="16" width="2" height="1" fill="#232838"/><rect x="0" y="17" width="2" height="1" fill="#232838"/><rect x="2" y="17" width="1" height="1" fill="#dbe2ee"/><rect x="3" y="17" width="1" height="1" fill="#f7f9fd"/><rect x="4" y="17" width="1" height="1" fill="#232838"/><rect x="5" y="17" width="4" height="1" fill="#5fe0d6"/><rect x="9" y="17" width="1" height="1" fill="#1d8f88"/><rect x="10" y="17" width="1" height="1" fill="#232838"/><rect x="11" y="17" width="10" height="1" fill="#f7f9fd"/><rect x="21" y="17" width="1" height="1" fill="#232838"/><rect x="22" y="17" width="1" height="1" fill="#1d8f88"/><rect x="23" y="17" width="4" height="1" fill="#5fe0d6"/><rect x="27" y="17" width="1" height="1" fill="#232838"/><rect x="28" y="17" width="1" height="1" fill="#f7f9fd"/><rect x="29" y="17" width="1" height="1" fill="#dbe2ee"/><rect x="30" y="17" width="2" height="1" fill="#232838"/><rect x="0" y="18" width="2" height="1" fill="#232838"/><rect x="2" y="18" width="1" height="1" fill="#dbe2ee"/><rect x="3" y="18" width="2" height="1" fill="#f7f9fd"/><rect x="5" y="18" width="5" height="1" fill="#232838"/><rect x="10" y="18" width="4" height="1" fill="#f7f9fd"/><rect x="14" y="18" width="4" height="1" fill="#f6a8bd"/><rect x="18" y="18" width="4" height="1" fill="#f7f9fd"/><rect x="22" y="18" width="5" height="1" fill="#232838"/><rect x="27" y="18" width="2" height="1" fill="#f7f9fd"/><rect x="29" y="18" width="1" height="1" fill="#dbe2ee"/><rect x="30" y="18" width="2" height="1" fill="#232838"/><rect x="0" y="19" width="2" height="1" fill="#232838"/><rect x="2" y="19" width="1" height="1" fill="#aab6c9"/><rect x="3" y="19" width="1" height="1" fill="#dbe2ee"/><rect x="4" y="19" width="10" height="1" fill="#f7f9fd"/><rect x="14" y="19" width="4" height="1" fill="#f6a8bd"/><rect x="18" y="19" width="10" height="1" fill="#f7f9fd"/><rect x="28" y="19" width="1" height="1" fill="#dbe2ee"/><rect x="29" y="19" width="1" height="1" fill="#aab6c9"/><rect x="30" y="19" width="2" height="1" fill="#232838"/><rect x="1" y="20" width="2" height="1" fill="#232838"/><rect x="3" y="20" width="1" height="1" fill="#aab6c9"/><rect x="4" y="20" width="1" height="1" fill="#dbe2ee"/><rect x="5" y="20" width="22" height="1" fill="#f7f9fd"/><rect x="27" y="20" width="1" height="1" fill="#dbe2ee"/><rect x="28" y="20" width="1" height="1" fill="#aab6c9"/><rect x="29" y="20" width="2" height="1" fill="#232838"/><rect x="2" y="21" width="2" height="1" fill="#232838"/><rect x="4" y="21" width="1" height="1" fill="#aab6c9"/><rect x="5" y="21" width="2" height="1" fill="#dbe2ee"/><rect x="7" y="21" width="18" height="1" fill="#f7f9fd"/><rect x="25" y="21" width="2" height="1" fill="#dbe2ee"/><rect x="27" y="21" width="1" height="1" fill="#aab6c9"/><rect x="28" y="21" width="2" height="1" fill="#232838"/><rect x="3" y="22" width="2" height="1" fill="#232838"/><rect x="5" y="22" width="2" height="1" fill="#aab6c9"/><rect x="7" y="22" width="3" height="1" fill="#dbe2ee"/><rect x="10" y="22" width="12" height="1" fill="#f7f9fd"/><rect x="22" y="22" width="3" height="1" fill="#dbe2ee"/><rect x="25" y="22" width="2" height="1" fill="#aab6c9"/><rect x="27" y="22" width="2" height="1" fill="#232838"/><rect x="4" y="23" width="4" height="1" fill="#232838"/><rect x="8" y="23" width="3" height="1" fill="#aab6c9"/><rect x="11" y="23" width="10" height="1" fill="#dbe2ee"/><rect x="21" y="23" width="3" height="1" fill="#aab6c9"/><rect x="24" y="23" width="4" height="1" fill="#232838"/><rect x="6" y="24" width="6" height="1" fill="#232838"/><rect x="12" y="24" width="8" height="1" fill="#aab6c9"/><rect x="20" y="24" width="6" height="1" fill="#232838"/><rect x="9" y="25" width="14" height="1" fill="#232838"/></svg>
